<?xml version="1.0" encoding="UTF-8"?>
<svg width="66px" height="33px" viewBox="0 0 66 33" version="1.1" xmlns="http://www.w3.org/2000/svg" xmlns:xlink="http://www.w3.org/1999/xlink">
    <!-- Generator: Sketch 52.3 (67297) - http://www.bohemiancoding.com/sketch -->
    <title>321logo</title>
    <desc>Created with Sketch.</desc>
    <defs>
        <path d="M0.98586,8.475 C1.4449608,3.63 4.373604,0.3825 9.138636,0.3825 C13.7274264,0.3825 16.7975064,3.48 16.7975064,8.325 C16.7975064,10.485 16.0555536,12.915 14.2561512,14.175 C16.6908888,15.3 17.6787072,18.4725 17.6787072,21.0375 C17.6787072,26.5575 13.903668,29.985 8.820972,29.985 C3.9514968,29.985 0.2809008,26.145 0.000216,21.1125 L5.2221744,21.1125 C5.3287848,23.3475 6.740892,25.215 9.0320256,25.215 C11.3644944,25.215 12.596004,22.8975 12.596004,20.7 C12.596004,18.4725 11.183904,16.0425 8.855784,16.23 L7.9027776,16.305 L7.9027776,12.39 L8.4663144,12.39 C10.6899912,12.39 11.8562328,10.86 11.8562328,8.5125 C11.8562328,6.6525 10.7617968,4.935 8.820972,4.935 C6.9845832,4.935 5.9989392,6.765 5.9271336,8.475 L0.98586,8.475 Z" id="path-1"></path>
        <path d="M18.3576977,24.2633333 L18.3576977,28.9851282 L0.160820385,28.9851282 L7.03985808,20.0397436 C8.93463308,17.6082051 12.9118812,12.7674359 12.9118812,9.62205128 C12.9118812,7.62179487 11.6597446,5.11589744 9.43813308,5.11589744 C7.07519077,5.11589744 5.999725,7.77794872 6.10793,9.88230769 L0.518575769,9.88230769 C0.876331154,4.52102564 3.85099308,0.386666667 9.40280038,0.386666667 C14.3451096,0.386666667 18.1766131,4.26076923 18.1766131,9.36923077 C18.1766131,13.4664103 15.9572085,16.5374359 13.4838469,19.4894872 L9.50880577,24.2633333 L18.3576977,24.2633333 Z" id="path-3"></path>
        <polygon id="path-5" points="0.702115385 5.06210526 0.702115385 0.375789474 9.97722308 0.375789474 9.97722308 27.9852632 4.43307692 27.9852632 4.43307692 5.06210526"></polygon>
        <path d="M10.7478711,0.0739130435 L11.0005256,0.0739130435 C11.692416,0.106792748 12.3601519,0.408715703 12.8637857,0.931304348 L14.4561429,1.07168246 L14.4561429,1.07291481 L13.6646429,2.52043478 C13.8588571,3.65869565 13.4012857,4.83391304 12.4536429,5.49913043 C12.5378571,5.73565217 12.6047857,5.98695652 12.6392857,6.25304348 C12.8012143,7.53913043 12.2637143,8.74391304 11.3441429,9.47565217 L11.3485,9.49043478 L11.2319286,9.55695652 C11.0851429,9.66782609 10.9297143,9.76391304 10.7657143,9.84521739 L0.0398642857,16.3273913 L4.37635714,8.72913043 L0.0398642857,3.45913043 L7.38321429,3.45913043 L8.3395,1.78130435 C8.4215,1.59652174 8.51864286,1.41913043 8.63521429,1.25652174 L8.67407143,1.19 L8.67621429,1.1973913 C8.9115,0.879565217 9.20935714,0.613478261 9.5655,0.413913043 C9.94418295,0.203238565 10.3472178,0.0929854715 10.7478729,0.0739130435 L10.7478711,0.0739130435 Z M11.0786429,1.24913043 C10.8412143,1.38217391 10.7505714,1.6926087 10.8757857,1.94391304 C11.0009286,2.19521739 11.2988571,2.29130435 11.5362857,2.15826087 C11.7780714,2.02521739 11.8687143,1.71478261 11.7413571,1.46347826 C11.6161429,1.21217391 11.3182857,1.11608696 11.0786429,1.24913043 Z" id="path-7"></path>
    </defs>
    <g id="Symbols" stroke="none" stroke-width="1" fill="none" fill-rule="evenodd">
        <g id="HEADER" transform="translate(-113.000000, -16.000000)">
            <g id="Group-6">
                <g id="321logo" transform="translate(113.000000, 16.000000)">
                    <g id="Group-388" transform="translate(0.000000, 2.500000)">
                        <mask id="mask-2" fill="white">
                            <use xlink:href="#path-1"></use>
                        </mask>
                        <g id="Clip-387"></g>
                        <polygon id="Fill-386" fill="#F76266" mask="url(#mask-2)" points="-3.599784 33.735 21.2787072 33.735 21.2787072 -3.3644925 -3.599784 -3.3644925"></polygon>
                    </g>
                    <g id="Group-391" transform="translate(19.000000, 2.500000)">
                        <mask id="mask-4" fill="white">
                            <use xlink:href="#path-3"></use>
                        </mask>
                        <g id="Clip-390"></g>
                        <polygon id="Fill-389" fill="#87D652" mask="url(#mask-4)" points="-3.49302577 32.7030769 22.0115438 32.7030769 22.0115438 -3.33649462 -3.49302577 -3.33649462"></polygon>
                    </g>
                    <g id="Group-394" transform="translate(39.000000, 3.500000)">
                        <mask id="mask-6" fill="white">
                            <use xlink:href="#path-5"></use>
                        </mask>
                        <g id="Clip-393"></g>
                        <polygon id="Fill-392" fill="#4FA5F0" mask="url(#mask-6)" points="-3.14403846 31.6694737 13.8233769 31.6694737 13.8233769 -3.30922421 -3.14403846 -3.30922421"></polygon>
                    </g>
                    <g id="Group-397" transform="translate(51.000000, 0.500000)">
                        <mask id="mask-8" fill="white">
                            <use xlink:href="#path-7"></use>
                        </mask>
                        <g id="Clip-396"></g>
                        <polygon id="Fill-395" fill="#FFCE2B" mask="url(#mask-8)" points="-3.53156429 20.0230435 18.0282214 20.0230435 18.0282214 -3.62587826 -3.53156429 -3.62587826"></polygon>
                    </g>
                </g>
            </g>
        </g>
    </g>
</svg>